<svg xmlns="http://www.w3.org/2000/svg" viewBox="0 0 457.67 500"><defs><style>.cls-1{fill:#fff;}.cls-2{fill:#231f20;}</style></defs><g id="Layer_2" data-name="Layer 2"><g id="Layer_1-2" data-name="Layer 1"><rect class="cls-1" width="457.67" height="500"/><rect class="cls-2" width="100.23" height="209.91"/><rect class="cls-2" y="290.09" width="100.23" height="209.91"/><path class="cls-2" d="M340,279.67c-73.77-65-97-111.45-97-175.6,0-44.8,11-80,32.63-104.07H190V500h83.63c-22-24.05-33.13-59.27-33.13-104.07V361.45h83.39v40.09c0,40.09,17.64,54.53,45.7,54.53s45.71-14.44,45.71-54.53C415.33,360.65,397.69,330.18,340,279.67Z"/><path class="cls-2" d="M419.34,121.71V98.46c0-40.09-16-55.32-44.1-55.32s-44.1,15.23-44.1,55.32c0,40.89,17.64,71.36,75.37,121.88,20.9,18.4,37.75,35.33,51.16,51.59V121.71Z"/></g></g></svg>