<svg xmlns="http://www.w3.org/2000/svg" width="125.019" height="100" viewBox="0 0 125.019 100">
  <path id="Icon_awesome-code" data-name="Icon awesome-code" d="M54.48,99.905,42.565,96.448a2.347,2.347,0,0,1-1.6-2.91L67.625,1.695a2.347,2.347,0,0,1,2.91-1.6L82.451,3.55a2.347,2.347,0,0,1,1.6,2.91L57.39,98.3a2.341,2.341,0,0,1-2.91,1.6ZM32.213,77.99l8.5-9.063a2.344,2.344,0,0,0-.156-3.36L22.856,50l17.7-15.568a2.327,2.327,0,0,0,.156-3.36l-8.5-9.063a2.346,2.346,0,0,0-3.321-.1L.745,48.28a2.328,2.328,0,0,0,0,3.418L28.892,78.087a2.329,2.329,0,0,0,3.321-.1Zm63.911.117L124.27,51.718a2.328,2.328,0,0,0,0-3.418L96.124,21.892a2.365,2.365,0,0,0-3.321.1l-8.5,9.063a2.344,2.344,0,0,0,.156,3.36L102.159,50l-17.7,15.568a2.327,2.327,0,0,0-.156,3.36l8.5,9.063a2.347,2.347,0,0,0,3.321.117Z" transform="translate(0.002 -0.003)" fill="#fff"/>
</svg>
