<svg xmlns="http://www.w3.org/2000/svg" width="100" height="100" viewBox="0 0 100 100">
  <path id="Icon_awesome-pencil-ruler" data-name="Icon awesome-pencil-ruler" d="M21.379,47.664,47.664,21.384l-8.617-8.617L27,24.813a1.547,1.547,0,0,1-2.189,0l-2.189-2.189a1.547,1.547,0,0,1,0-2.189L34.668,8.388,28.1,1.816a6.2,6.2,0,0,0-8.762,0L1.815,19.337a6.2,6.2,0,0,0,0,8.762L21.379,47.664ZM97.251,24.852a9.383,9.383,0,0,0,0-13.267L88.413,2.747a9.386,9.386,0,0,0-13.271,0l-8.988,8.986L88.263,33.842Zm-35.517-8.7-58.007,58L.063,95.138a4.146,4.146,0,0,0,4.8,4.8l20.986-3.68L83.843,38.262ZM98.185,71.9l-6.57-6.57L79.568,77.379a1.547,1.547,0,0,1-2.189,0l-2.189-2.189a1.55,1.55,0,0,1,0-2.189L87.236,60.953l-8.621-8.621L52.33,78.613,71.9,98.183a6.2,6.2,0,0,0,8.762,0L98.185,80.664a6.2,6.2,0,0,0,0-8.762Z" transform="translate(0 0.001)" fill="#fff"/>
</svg>
